<svg xmlns="http://www.w3.org/2000/svg" width="456" height="456" viewBox="0 0 456 456">
  <defs>
    <linearGradient id="bg" x1="0" y1="0" x2="0" y2="1">
      <stop offset="0" stop-color="#15120D"/>
      <stop offset="1" stop-color="#100b05"/>
    </linearGradient>
    <linearGradient id="bezel" x1="0" y1="0" x2="0" y2="1">
      <stop offset="0" stop-color="#b9924a"/>
      <stop offset="0.5" stop-color="#6b5836"/>
      <stop offset="1" stop-color="#15120D"/>
    </linearGradient>
    <linearGradient id="bezelInner" x1="0" y1="0" x2="0" y2="1">
      <stop offset="0" stop-color="#15120D"/>
      <stop offset="0.5" stop-color="#3a3024"/>
      <stop offset="1" stop-color="#6b5836"/>
    </linearGradient>
    <linearGradient id="pointer" x1="0" y1="0" x2="0" y2="1">
      <stop offset="0" stop-color="#ffb22e"/>
      <stop offset="1" stop-color="#ff7a1a"/>
    </linearGradient>
    <radialGradient id="face" cx="0.5" cy="0.40" r="0.62">
      <stop offset="0" stop-color="#15120D"/>
      <stop offset="0.5" stop-color="#3a3024"/>
      <stop offset="0.78" stop-color="#6b5836"/>
      <stop offset="1" stop-color="#b9924a"/>
    </radialGradient>
    <radialGradient id="hub" cx="0.5" cy="0.42" r="0.6">
      <stop offset="0" stop-color="#6b5836"/>
      <stop offset="0.4" stop-color="#3a3024"/>
      <stop offset="1" stop-color="#100b05"/>
    </radialGradient>
    <radialGradient id="halo" cx="0.5" cy="0.5" r="0.5">
      <stop offset="0" stop-color="#ff7a1a" stop-opacity="0"/>
      <stop offset="0.56" stop-color="#ffb22e" stop-opacity="0"/>
      <stop offset="0.65" stop-color="#ffc24e" stop-opacity="0.85"/>
      <stop offset="0.73" stop-color="#ff8a22" stop-opacity="0.6"/>
      <stop offset="0.9" stop-color="#ff7a1a" stop-opacity="0.18"/>
      <stop offset="1" stop-color="#ff7a1a" stop-opacity="0"/>
    </radialGradient>
    <radialGradient id="amberGlow" cx="0.5" cy="0.5" r="0.5">
      <stop offset="0" stop-color="#ffb22e" stop-opacity="1"/>
      <stop offset="0.45" stop-color="#ff7a1a" stop-opacity="0.7"/>
      <stop offset="0.8" stop-color="#ff7a1a" stop-opacity="0.2"/>
      <stop offset="1" stop-color="#ff7a1a" stop-opacity="0"/>
    </radialGradient>
    <radialGradient id="faceHi" cx="0.5" cy="0.5" r="0.5">
      <stop offset="0" stop-color="#b9924a" stop-opacity="0.7"/>
      <stop offset="0.6" stop-color="#6b5836" stop-opacity="0.2"/>
      <stop offset="1" stop-color="#6b5836" stop-opacity="0"/>
    </radialGradient>
    <radialGradient id="faceShadow" cx="0.5" cy="0.5" r="0.5">
      <stop offset="0" stop-color="#0a0907" stop-opacity="0.7"/>
      <stop offset="0.7" stop-color="#100b05" stop-opacity="0.3"/>
      <stop offset="1" stop-color="#100b05" stop-opacity="0"/>
    </radialGradient>
    <radialGradient id="knobShadow" cx="0.5" cy="0.5" r="0.5">
      <stop offset="0" stop-color="#0a0907" stop-opacity="0.65"/>
      <stop offset="0.74" stop-color="#0a0907" stop-opacity="0.32"/>
      <stop offset="1" stop-color="#0a0907" stop-opacity="0"/>
    </radialGradient>
    <radialGradient id="vign" cx="0.5" cy="0.46" r="0.62">
      <stop offset="0" stop-color="#000000" stop-opacity="0"/>
      <stop offset="0.66" stop-color="#000000" stop-opacity="0"/>
      <stop offset="1" stop-color="#000000" stop-opacity="0.4"/>
    </radialGradient>
  </defs>

  <rect x="0" y="0" width="456" height="456" fill="#100b05"/>
  <rect x="22" y="22" width="412" height="412" rx="40" fill="url(#bg)" stroke="#3a3024" stroke-width="2"/>
  <rect x="40" y="40" width="376" height="376" rx="28" fill="none" stroke="#3a3024" stroke-width="1.5" opacity="0.5"/>
  <rect x="22" y="22" width="412" height="412" rx="40" fill="url(#vign)"/>

  <g>
    <circle cx="52" cy="52" r="7" fill="url(#hub)" stroke="#15120D" stroke-width="1"/>
    <line x1="48" y1="52" x2="56" y2="52" stroke="#15120D" stroke-width="1.4"/>
    <circle cx="404" cy="52" r="7" fill="url(#hub)" stroke="#15120D" stroke-width="1"/>
    <line x1="400" y1="52" x2="408" y2="52" stroke="#15120D" stroke-width="1.4"/>
    <circle cx="52" cy="404" r="7" fill="url(#hub)" stroke="#15120D" stroke-width="1"/>
    <line x1="48" y1="404" x2="56" y2="404" stroke="#15120D" stroke-width="1.4"/>
    <circle cx="404" cy="404" r="7" fill="url(#hub)" stroke="#15120D" stroke-width="1"/>
    <line x1="400" y1="404" x2="408" y2="404" stroke="#15120D" stroke-width="1.4"/>
  </g>

  <circle cx="228" cy="228" r="236" fill="url(#halo)" opacity="0.6"/>
  <circle cx="228" cy="228" r="205" fill="url(#halo)" opacity="1"/>

  <ellipse cx="228" cy="238" rx="160" ry="158" fill="url(#knobShadow)"/>

  <g>
    <circle cx="228" cy="228" r="150" fill="url(#bezel)"/>
    <path d="M 128 124 A 146 146 0 0 1 328 124" fill="none" stroke="#b9924a" stroke-width="4" stroke-linecap="round" opacity="0.55"/>
    <path d="M 128 332 A 146 146 0 0 0 328 332" fill="none" stroke="#15120D" stroke-width="5" stroke-linecap="round" opacity="0.5"/>

    <g fill="#3a3024" opacity="0.85">
      <rect x="226.2" y="78" width="3.6" height="20" rx="1.3" transform="rotate(0.00 228 228)"/>
      <rect x="226.2" y="78" width="3.6" height="20" rx="1.3" transform="rotate(8.18 228 228)"/>
      <rect x="226.2" y="78" width="3.6" height="20" rx="1.3" transform="rotate(16.36 228 228)"/>
      <rect x="226.2" y="78" width="3.6" height="20" rx="1.3" transform="rotate(24.55 228 228)"/>
      <rect x="226.2" y="78" width="3.6" height="20" rx="1.3" transform="rotate(32.73 228 228)"/>
      <rect x="226.2" y="78" width="3.6" height="20" rx="1.3" transform="rotate(40.91 228 228)"/>
      <rect x="226.2" y="78" width="3.6" height="20" rx="1.3" transform="rotate(49.09 228 228)"/>
      <rect x="226.2" y="78" width="3.6" height="20" rx="1.3" transform="rotate(57.27 228 228)"/>
      <rect x="226.2" y="78" width="3.6" height="20" rx="1.3" transform="rotate(65.45 228 228)"/>
      <rect x="226.2" y="78" width="3.6" height="20" rx="1.3" transform="rotate(73.64 228 228)"/>
      <rect x="226.2" y="78" width="3.6" height="20" rx="1.3" transform="rotate(81.82 228 228)"/>
      <rect x="226.2" y="78" width="3.6" height="20" rx="1.3" transform="rotate(90.00 228 228)"/>
      <rect x="226.2" y="78" width="3.6" height="20" rx="1.3" transform="rotate(98.18 228 228)"/>
      <rect x="226.2" y="78" width="3.6" height="20" rx="1.3" transform="rotate(106.36 228 228)"/>
      <rect x="226.2" y="78" width="3.6" height="20" rx="1.3" transform="rotate(114.55 228 228)"/>
      <rect x="226.2" y="78" width="3.6" height="20" rx="1.3" transform="rotate(122.73 228 228)"/>
      <rect x="226.2" y="78" width="3.6" height="20" rx="1.3" transform="rotate(130.91 228 228)"/>
      <rect x="226.2" y="78" width="3.6" height="20" rx="1.3" transform="rotate(139.09 228 228)"/>
      <rect x="226.2" y="78" width="3.6" height="20" rx="1.3" transform="rotate(147.27 228 228)"/>
      <rect x="226.2" y="78" width="3.6" height="20" rx="1.3" transform="rotate(155.45 228 228)"/>
      <rect x="226.2" y="78" width="3.6" height="20" rx="1.3" transform="rotate(163.64 228 228)"/>
      <rect x="226.2" y="78" width="3.6" height="20" rx="1.3" transform="rotate(171.82 228 228)"/>
      <rect x="226.2" y="78" width="3.6" height="20" rx="1.3" transform="rotate(180.00 228 228)"/>
      <rect x="226.2" y="78" width="3.6" height="20" rx="1.3" transform="rotate(188.18 228 228)"/>
      <rect x="226.2" y="78" width="3.6" height="20" rx="1.3" transform="rotate(196.36 228 228)"/>
      <rect x="226.2" y="78" width="3.6" height="20" rx="1.3" transform="rotate(204.55 228 228)"/>
      <rect x="226.2" y="78" width="3.6" height="20" rx="1.3" transform="rotate(212.73 228 228)"/>
      <rect x="226.2" y="78" width="3.6" height="20" rx="1.3" transform="rotate(220.91 228 228)"/>
      <rect x="226.2" y="78" width="3.6" height="20" rx="1.3" transform="rotate(229.09 228 228)"/>
      <rect x="226.2" y="78" width="3.6" height="20" rx="1.3" transform="rotate(237.27 228 228)"/>
      <rect x="226.2" y="78" width="3.6" height="20" rx="1.3" transform="rotate(245.45 228 228)"/>
      <rect x="226.2" y="78" width="3.6" height="20" rx="1.3" transform="rotate(253.64 228 228)"/>
      <rect x="226.2" y="78" width="3.6" height="20" rx="1.3" transform="rotate(261.82 228 228)"/>
      <rect x="226.2" y="78" width="3.6" height="20" rx="1.3" transform="rotate(270.00 228 228)"/>
      <rect x="226.2" y="78" width="3.6" height="20" rx="1.3" transform="rotate(278.18 228 228)"/>
      <rect x="226.2" y="78" width="3.6" height="20" rx="1.3" transform="rotate(286.36 228 228)"/>
      <rect x="226.2" y="78" width="3.6" height="20" rx="1.3" transform="rotate(294.55 228 228)"/>
      <rect x="226.2" y="78" width="3.6" height="20" rx="1.3" transform="rotate(302.73 228 228)"/>
      <rect x="226.2" y="78" width="3.6" height="20" rx="1.3" transform="rotate(310.91 228 228)"/>
      <rect x="226.2" y="78" width="3.6" height="20" rx="1.3" transform="rotate(319.09 228 228)"/>
      <rect x="226.2" y="78" width="3.6" height="20" rx="1.3" transform="rotate(327.27 228 228)"/>
      <rect x="226.2" y="78" width="3.6" height="20" rx="1.3" transform="rotate(335.45 228 228)"/>
      <rect x="226.2" y="78" width="3.6" height="20" rx="1.3" transform="rotate(343.64 228 228)"/>
      <rect x="226.2" y="78" width="3.6" height="20" rx="1.3" transform="rotate(351.82 228 228)"/>
    </g>

    <circle cx="228" cy="228" r="132" fill="url(#bezelInner)"/>
    <circle cx="228" cy="228" r="128" fill="url(#face)"/>
    <circle cx="228" cy="228" r="128" fill="none" stroke="#b9924a" stroke-width="2" opacity="0.5"/>
    <ellipse cx="228" cy="150" rx="100" ry="58" fill="url(#faceHi)"/>
    <ellipse cx="228" cy="302" rx="116" ry="68" fill="url(#faceShadow)"/>

    <ellipse cx="228" cy="140" rx="54" ry="82" fill="url(#amberGlow)" opacity="0.16"/>
    <ellipse cx="228" cy="126" rx="32" ry="62" fill="url(#amberGlow)" opacity="0.26"/>
    <ellipse cx="228" cy="118" rx="18" ry="44" fill="url(#amberGlow)" opacity="0.4"/>
    <rect x="222.5" y="104" width="11" height="66" rx="5" fill="url(#pointer)"/>
    <rect x="225.5" y="106" width="5" height="60" rx="2.5" fill="#ffb22e" opacity="0.9"/>
    <circle cx="228" cy="110" r="7" fill="#ffb22e"/>
    <circle cx="228" cy="110" r="3.5" fill="#ff7a1a"/>

    <ellipse cx="228" cy="232" rx="40" ry="40" fill="url(#faceShadow)" opacity="0.8"/>
    <circle cx="228" cy="228" r="30" fill="url(#hub)"/>
    <circle cx="228" cy="228" r="30" fill="none" stroke="#6b5836" stroke-width="2" opacity="0.8"/>
    <circle cx="228" cy="228" r="22" fill="none" stroke="#15120D" stroke-width="1" opacity="0.6"/>
    <ellipse cx="228" cy="220" rx="16" ry="8" fill="#6b5836" opacity="0.35"/>
  </g>

  <g>
    <ellipse cx="228" cy="62" rx="24" ry="30" fill="url(#amberGlow)" opacity="0.45"/>
    <ellipse cx="228" cy="60" rx="13" ry="20" fill="url(#amberGlow)" opacity="0.6"/>
    <rect x="226.6" y="50" width="2.8" height="20" rx="1" fill="#efe4cf" transform="rotate(-80 228 228)"/>
    <rect x="227.1" y="50" width="1.8" height="13" rx="0.9" fill="#9a8b6e" transform="rotate(-72 228 228)"/>
    <rect x="227.1" y="50" width="1.8" height="13" rx="0.9" fill="#9a8b6e" transform="rotate(-64 228 228)"/>
    <rect x="227.1" y="50" width="1.8" height="13" rx="0.9" fill="#9a8b6e" transform="rotate(-56 228 228)"/>
    <rect x="227.1" y="50" width="1.8" height="13" rx="0.9" fill="#9a8b6e" transform="rotate(-48 228 228)"/>
    <rect x="226.6" y="50" width="2.8" height="20" rx="1" fill="#efe4cf" transform="rotate(-40 228 228)"/>
    <rect x="227.1" y="50" width="1.8" height="13" rx="0.9" fill="#9a8b6e" transform="rotate(-32 228 228)"/>
    <rect x="227.1" y="50" width="1.8" height="13" rx="0.9" fill="#9a8b6e" transform="rotate(-24 228 228)"/>
    <rect x="227.1" y="50" width="1.8" height="13" rx="0.9" fill="#9a8b6e" transform="rotate(-16 228 228)"/>
    <rect x="227.1" y="50" width="1.8" height="13" rx="0.9" fill="#9a8b6e" transform="rotate(-8 228 228)"/>
    <rect x="226.0" y="46" width="4" height="27" rx="1.6" fill="#ffb22e"/>
    <rect x="227.2" y="48" width="1.6" height="22" rx="0.8" fill="#ff7a1a" opacity="0.85"/>
    <rect x="227.1" y="50" width="1.8" height="13" rx="0.9" fill="#9a8b6e" transform="rotate(8 228 228)"/>
    <rect x="227.1" y="50" width="1.8" height="13" rx="0.9" fill="#9a8b6e" transform="rotate(16 228 228)"/>
    <rect x="227.1" y="50" width="1.8" height="13" rx="0.9" fill="#9a8b6e" transform="rotate(24 228 228)"/>
    <rect x="227.1" y="50" width="1.8" height="13" rx="0.9" fill="#9a8b6e" transform="rotate(32 228 228)"/>
    <rect x="226.6" y="50" width="2.8" height="20" rx="1" fill="#efe4cf" transform="rotate(40 228 228)"/>
    <rect x="227.1" y="50" width="1.8" height="13" rx="0.9" fill="#9a8b6e" transform="rotate(48 228 228)"/>
    <rect x="227.1" y="50" width="1.8" height="13" rx="0.9" fill="#9a8b6e" transform="rotate(56 228 228)"/>
    <rect x="227.1" y="50" width="1.8" height="13" rx="0.9" fill="#9a8b6e" transform="rotate(64 228 228)"/>
    <rect x="227.1" y="50" width="1.8" height="13" rx="0.9" fill="#9a8b6e" transform="rotate(72 228 228)"/>
    <rect x="226.6" y="50" width="2.8" height="20" rx="1" fill="#efe4cf" transform="rotate(80 228 228)"/>
  </g>
</svg>